<?xml version="1.0" encoding="UTF-8"?>
<svg width="165px" height="77px" viewBox="0 0 165 77" version="1.1" xmlns="http://www.w3.org/2000/svg" xmlns:xlink="http://www.w3.org/1999/xlink">
    <title>Group 61 Copy 3</title>
    <g id="Design" stroke="none" stroke-width="1" fill="none" fill-rule="evenodd">
        <g id="Login-Screen" transform="translate(-638.000000, -57.000000)" fill="#FFFFFF">
            <g id="Group-61-Copy-3" transform="translate(638.000000, 57.000000)">
                <path d="M69.4945456,48.9278922 C69.1624155,48.6140632 68.6480189,48.6243866 68.326521,48.949055 C64.4634836,52.848173 59.1640849,54.8214757 53.3143425,54.5138407 C43.2279164,53.9878676 37.7194175,45.7446964 32.8589773,38.4719173 C31.0844103,35.8162432 29.3579414,33.2338647 27.4740145,31.2259789 C29.1098565,30.5425751 30.6186181,29.5742477 31.9597958,28.3746779 C35.2502126,25.4314993 37.307799,21.3610141 37.307799,16.4595017 C37.307799,12.4163734 35.8511858,8.39647247 33.3121121,5.43109875 C31.1902261,2.9535019 27.2957984,0 20.7914155,0 C14.5072713,0 9.04433901,2.34597451 4.99194697,6.78396986 C2.01897769,10.0394289 0.592742257,13.5333566 0.0423986595,15.1706352 C-0.103920843,15.6062793 0.141632648,16.0759904 0.57654079,16.199354 L3.79151949,17.1093547 C4.18643026,17.2213627 4.60058027,17.0061215 4.73930533,16.612803 C5.66835823,13.9777755 9.65391922,4.99442231 20.7914155,4.99442231 C24.4833249,4.99442231 27.5367952,6.28122417 29.6217216,8.71597923 C31.3927445,10.7847726 32.4088803,13.6066522 32.4088803,16.4595017 C32.4088803,19.9518809 30.976063,22.610652 28.7296283,24.6200863 C26.648246,26.4813809 22.9902584,27.3500883 19.982861,27.3500883 L15.7071925,27.3500883 L15.7071925,12.785432 C15.7071925,12.3110755 15.3300021,11.9265318 14.8647162,11.9265318 L11.6507501,11.9265318 C11.1854642,11.9265318 10.8082738,12.3110755 10.8082738,12.785432 L10.8082738,48.3807562 C10.8082738,48.8551128 11.1854642,49.2396564 11.6507501,49.2396564 L14.8647162,49.2396564 C15.3300021,49.2396564 15.7071925,48.8551128 15.7071925,48.3807562 L15.7071925,32.3243802 L19.9686847,32.3243802 C22.8231808,32.3243802 25.5976821,36.4764195 28.8101293,41.2839897 C34.0401655,49.1095826 40.5485988,58.849119 53.0642324,59.502069 C53.5467323,59.5273612 54.0261945,59.5397492 54.5031252,59.5397492 C61.2393916,59.5397492 67.3341811,57.0373763 71.8726172,52.3975601 C72.2113291,52.0512127 72.2012032,51.4865271 71.8493276,51.1536 L69.4945456,48.9278922 Z" id="Fill-1-Copy-6"></path>
                <path d="M81.7329822,39.9324091 C77.6674264,39.9324091 74.3597956,36.0554862 74.3597956,31.2897254 C74.3597956,26.5239646 77.6674264,22.6470417 81.7329822,22.6470417 C86.3969796,22.6470417 89.7279001,26.7665627 89.7279001,31.2897254 C89.7279001,35.8128881 86.2774938,39.9324091 81.7329822,39.9324091 M52.9606949,22.7373708 C57.2216808,22.7373708 58.1806052,25.3584618 58.1806052,26.2767211 C58.1806052,27.6187527 57.6125412,28.6232118 56.3943934,29.4392703 C53.7991208,31.1761689 48.9007084,31.5023858 44.9941295,30.3327536 C45.587002,24.3627776 50.3593468,22.7373708 52.9606949,22.7373708 M164.388819,38.5088232 L161.232064,37.5461736 C160.831078,37.4233261 160.410852,37.637535 160.250356,38.0313696 C159.504076,39.8622105 158.4525,39.9644113 158.016579,39.9489264 C156.390863,39.8916319 155.050698,39.4714728 155.101328,34.0001131 L155.101328,30.6125156 C155.101328,26.640102 154.155567,23.5136845 152.290373,21.3215274 C150.495048,19.2104084 147.948886,18.0944575 144.927312,18.0944575 C142.186733,18.0944575 139.854734,18.938389 138.018905,20.5596664 L138.018905,6.01410826 C138.018905,5.5351062 137.638171,5.14694936 137.168328,5.14694936 L133.97107,5.14694936 C133.501227,5.14694936 133.119987,5.5351062 133.119987,6.01410826 L133.119987,24.9290117 C132.480535,29.734001 127.223665,39.9138271 119.012559,39.9138271 C114.11769,39.9138271 109.936699,36.2062066 109.936699,31.2897254 C109.936699,26.5239646 113.24433,22.6470417 117.309886,22.6470417 C119.290009,22.6470417 120.668653,23.3805136 122.195135,25.306329 C122.464484,25.6464824 122.951034,25.7079062 123.296834,25.449307 L125.945774,23.465681 C126.313345,23.1900484 126.386758,22.6553004 126.101713,22.2919195 C123.593017,19.0906579 120.852438,17.6526194 117.309886,17.6526194 C110.807528,17.6526194 105.473195,23.3015402 105.065627,30.414824 C105.060058,30.3683691 105.059551,30.3750792 105.059551,30.4767639 C105.059551,30.4896681 105.058539,30.5030884 105.058539,30.5154764 C105.047906,30.7327823 105.042337,30.9511205 105.040312,31.170491 C104.85197,34.7201647 103.23638,39.453407 99.7328125,39.453407 C98.5050451,39.453407 96.0879886,38.9336278 95.2176661,35.1780039 C94.8956619,33.7895174 94.9230019,31.9313197 94.9230019,29.4139781 L94.9230019,19.420488 C94.9230019,18.9420021 94.5427737,18.5543614 94.0739437,18.5543614 L90.8736476,18.5543614 C90.4043113,18.5543614 90.0240831,18.9420021 90.0240831,19.420488 L90.0240831,20.9338868 C87.6556311,18.8398013 84.6872185,17.6526194 81.7329822,17.6526194 C75.507062,17.6526194 70.3529702,22.8323453 69.5682116,29.5166952 C68.0553996,34.5059558 62.2790701,41.3833517 53.953541,41.3833517 C53.2234624,41.3833517 47.2582846,41.1918541 45.4857428,35.5677093 C50.02266,36.452934 55.449139,36.045679 59.0828244,33.6140209 C61.6603766,31.8895103 63.0795239,29.2833881 63.0795239,26.2767211 C63.0795239,22.1396505 59.5329214,17.7429485 52.9606949,17.7429485 C49.9639297,17.7429485 46.9134971,18.8805784 44.5906117,20.8636882 C42.5122673,22.6382669 40.0344553,25.9417294 40.0344553,31.6009735 C40.0344553,41.7534427 47.4856115,46.377774 53.953541,46.377774 C61.6472129,46.377774 67.3962024,42.4084574 70.8942005,37.6757313 C72.9583687,41.9852013 77.0416448,44.9268314 81.7329822,44.9268314 C85.0117542,44.9268314 88.310778,43.4681462 90.7850458,40.9249963 C91.0559141,40.6467828 91.3105809,40.3577298 91.5551218,40.0624829 C93.3236132,43.0283728 96.1543134,44.6176479 99.7231929,44.6176479 C103.551802,44.6176479 106.245296,42.3103859 107.795068,39.3997257 C110.36857,42.7615149 114.483742,44.9082494 119.012559,44.9082494 C125.076464,44.9082494 129.863998,41.4390976 133.119987,37.1172396 L133.119987,43.7922985 C133.119987,44.2713005 133.501227,44.6594574 133.97107,44.6594574 L137.168328,44.6594574 C137.638171,44.6594574 138.018905,44.2713005 138.018905,43.7922985 L138.018905,36.3249248 C138.020424,36.3084075 138.024475,36.2929225 138.024475,36.2764052 C138.183451,24.6105372 141.782202,23.0888798 144.927312,23.0888798 C148.427336,23.0888798 150.202409,25.6201579 150.202409,30.6125156 L150.202409,34.0001131 C150.202409,36.8859973 150.202409,44.5510625 157.835831,44.9407678 L157.958355,44.9438648 C159.501039,44.9438648 163.142318,44.4018905 164.913848,39.5881263 C165.078394,39.1416427 164.836891,38.6456072 164.388819,38.5088232" id="Fill-3-Copy"></path>
                <text id="next" font-family="SharpSansDisplayNo1-Medium, Sharp Sans Display No1" font-size="29.9162747" font-weight="400">
                    <tspan x="102.57217" y="67.8837645">n</tspan>
                    <tspan x="120.372354" y="67.8837645" letter-spacing="-0.747906828">e</tspan>
                    <tspan x="137.1853" y="67.8837645">xt</tspan>
                </text>
            </g>
        </g>
    </g>
</svg>
